<svg height="465pt" viewBox="-2 0 465 465.9668" width="465pt" xmlns="http://www.w3.org/2000/svg"><path d="m374.234375 209.964844c-13.253906 0-24 10.746094-24 24 0-13.253906-10.742187-24-24-24-13.253906 0-24 10.746094-24 24 0 13.257812 34.746094 56 48 56 13.257813 0 48-42.742188 48-56 0-13.253906-10.742187-24-24-24zm0 0" fill="#eb3936"/><path d="m62.234375 273.964844h368v192h-368zm0 0" fill="#fc95a9"/><path d="m96.644531 141.417969 45.253907-45.253907 22.628906 22.628907-45.253906 45.253906zm0 0" fill="#ba4136"/><path d="m215.445312 90.503906c-31.242187-31.199218-66.707031-46.402344-79.199218-33.9375-12.496094 12.464844 2.703125 47.953125 33.941406 79.199219zm0 0" fill="#c34b47"/><path d="m136.246094 169.703125c-31.242188-31.199219-66.699219-46.398437-79.203125-33.945313-12.503907 12.457032 2.695312 48 33.945312 79.199219zm0 0" fill="#c34b47"/><path d="m.484375 282.84375 282.839844-282.84375 56.570312 56.570312-282.84375 282.839844zm0 0" fill="#c68382"/><path d="m113.621094 169.707031 56.566406-56.570312 56.570312 56.570312-56.570312 56.566407zm0 0" fill="#ba4136"/><path d="m214.234375 273.964844h64v192h-64zm0 0" fill="#c34b47"/><path d="m438.234375 97.964844c-13.253906 0-24 10.746094-24 24 0-13.253906-10.742187-24-24-24-13.253906 0-24 10.746094-24 24 0 13.257812 34.746094 56 48 56 13.257813 0 48-42.742188 48-56 0-13.253906-10.742187-24-24-24zm0 0" fill="#eb3936"/><path d="m430.234375 49.964844h-32c-4.417969 0-8-3.578125-8-8 0-4.417969 3.582031-8 8-8h32c4.421875 0 8 3.582031 8 8 0 4.421875-3.578125 8-8 8zm0 0" fill="#b09dda"/><path d="m414.234375 65.964844c-4.417969 0-8-3.578125-8-8v-32c0-4.417969 3.582031-8 8-8 4.421875 0 8 3.582031 8 8v32c0 4.421875-3.578125 8-8 8zm0 0" fill="#b09dda"/><path d="m310.234375 145.964844c0 4.421875-3.578125 8-8 8-4.417969 0-8-3.578125-8-8 0-4.417969 3.582031-8 8-8 4.421875 0 8 3.582031 8 8zm0 0" fill="#eca518"/><path d="m254.234375 233.964844h-32c-4.417969 0-8-3.578125-8-8 0-4.417969 3.582031-8 8-8h32c4.421875 0 8 3.582031 8 8 0 4.421875-3.578125 8-8 8zm0 0" fill="#b09dda"/><path d="m238.234375 249.964844c-4.417969 0-8-3.578125-8-8v-32c0-4.417969 3.582031-8 8-8 4.421875 0 8 3.582031 8 8v32c0 4.421875-3.578125 8-8 8zm0 0" fill="#b09dda"/><path d="m454.234375 225.964844c0 4.421875-3.578125 8-8 8-4.417969 0-8-3.578125-8-8 0-4.417969 3.582031-8 8-8 4.421875 0 8 3.582031 8 8zm0 0" fill="#eca518"/></svg>