<?xml version="1.0" encoding="UTF-8" standalone="no"?>
<!-- Generator: Adobe Illustrator 15.1.0, SVG Export Plug-In . SVG Version: 6.00 Build 0)  -->

<svg
   xmlns:dc="http://purl.org/dc/elements/1.1/"
   xmlns:cc="http://creativecommons.org/ns#"
   xmlns:rdf="http://www.w3.org/1999/02/22-rdf-syntax-ns#"
   xmlns:svg="http://www.w3.org/2000/svg"
   xmlns="http://www.w3.org/2000/svg"
   xmlns:sodipodi="http://sodipodi.sourceforge.net/DTD/sodipodi-0.dtd"
   xmlns:inkscape="http://www.inkscape.org/namespaces/inkscape"
   version="1.1"
   id="Layer_1"
   x="0px"
   y="0px"
   width="551.853px"
   height="255.556px"
   viewBox="0 0 551.853 255.556"
   enable-background="new 0 0 551.853 255.556"
   xml:space="preserve"
   sodipodi:docname="Logotipo_Analo_Designs-black.svg"
   inkscape:version="0.92.4 (unknown)"><metadata
   id="metadata87"><rdf:RDF><cc:Work
       rdf:about=""><dc:format>image/svg+xml</dc:format><dc:type
         rdf:resource="http://purl.org/dc/dcmitype/StillImage" /><dc:title /></cc:Work></rdf:RDF></metadata><defs
   id="defs85" /><sodipodi:namedview
   pagecolor="#ffffff"
   bordercolor="#666666"
   borderopacity="1"
   objecttolerance="10"
   gridtolerance="10"
   guidetolerance="10"
   inkscape:pageopacity="0"
   inkscape:pageshadow="2"
   inkscape:window-width="1366"
   inkscape:window-height="715"
   id="namedview83"
   showgrid="false"
   inkscape:zoom="0.58348869"
   inkscape:cx="-5.9984061"
   inkscape:cy="127.778"
   inkscape:window-x="0"
   inkscape:window-y="27"
   inkscape:window-maximized="1"
   inkscape:current-layer="g38" />
<path
   fill="#231F20"
   d="M1221.038,473.953c17.844-12.031,39.432-32.385,43.561-62.043c3.01-17.002-3.959-32.676-17.342-39.008  c-12.291-5.813-26.135-1.848-37.184,10.605c-9.021-11.945-22.049-16.332-34.213-11.453c-11.67,4.684-22.922,19.146-20.057,39.824  c2.951,22.129,14.934,43.439,32.951,58.684c0,0,10.78,8.787,15.213,11.365C1203.968,481.927,1212.316,479.273,1221.038,473.953z   M1170.642,409.929c-1.865-14.377,5.02-22.654,12.207-24.26c0.84-0.188,1.73-0.291,2.648-0.291c5.846,0,12.938,4.098,16.787,16.074  c1.648,5.125,2.984,7.543,8.096,7.549h0.012c4.891,0,6.563-4.332,7.393-7.592c3.139-12.332,12.66-17.119,20.438-15.488  c6.902,1.449,14.066,8.51,11.549,23.623c-3.887,22.346-20.008,42.576-44.264,55.568  C1186.366,451.572,1173.665,431.478,1170.642,409.929z"
   id="path2" />
<g
   id="g38">
	<g
   id="g18"
   style="fill:#ffffff">
		<path
   fill="#231F20"
   d="M279.827,227.36c0,4.562-1.596,8.439-4.788,11.631c-3.191,3.192-7.068,4.788-11.629,4.788h-8.849    c-0.852,0-1.589-0.313-2.211-0.935c-0.624-0.622-0.934-1.36-0.934-2.211v-26.544c0-0.854,0.311-1.59,0.934-2.213    c0.623-0.622,1.36-0.935,2.211-0.935h8.849c4.561,0,8.438,1.598,11.629,4.788C278.231,218.922,279.827,222.799,279.827,227.36z     M273.536,227.36c0-2.805-0.987-5.194-2.958-7.167c-1.974-1.973-4.362-2.958-7.167-2.958h-5.703v20.251h5.703    c2.805,0,5.193-0.985,7.167-2.958C272.548,232.554,273.536,230.166,273.536,227.36z"
   id="path4"
   style="fill:#ffffff" />
		<path
   fill="#231F20"
   d="M312.392,214.089c0,0.916-0.296,1.67-0.886,2.26s-1.344,0.886-2.26,0.886h-11.601v6.979h8.651    c0.917,0,1.671,0.295,2.261,0.885c0.589,0.59,0.885,1.343,0.885,2.261s-0.296,1.672-0.885,2.262    c-0.59,0.59-1.344,0.885-2.261,0.885h-8.651v7.019h11.601c0.916,0,1.67,0.296,2.26,0.886s0.886,1.344,0.886,2.262    c0,0.916-0.298,1.67-0.895,2.26s-1.354,0.886-2.271,0.886l-14.726-0.021c-0.84,0-1.573-0.314-2.202-0.943    c-0.631-0.631-0.945-1.364-0.945-2.203V214.09c0-0.839,0.314-1.574,0.945-2.203c0.629-0.629,1.362-0.945,2.202-0.945h14.746    c0.916,0,1.67,0.296,2.26,0.886S312.392,213.171,312.392,214.089z"
   id="path6"
   style="fill:#ffffff" />
		<path
   fill="#231F20"
   d="M342.066,233.258c0,2.923-1.022,5.407-3.067,7.453c-2.046,2.045-4.53,3.067-7.452,3.067    c-1.849,0-3.611-0.473-5.289-1.416c-1.729-0.971-3.009-2.255-3.834-3.854c-0.314-0.615-0.472-1.166-0.472-1.651    c0-0.865,0.333-1.599,1.002-2.202c0.668-0.602,1.436-0.904,2.301-0.904c0.772,0,1.714,0.622,2.821,1.868    c1.107,1.245,2.265,1.867,3.471,1.867c1.166,0,2.163-0.412,2.988-1.238c0.826-0.825,1.238-1.822,1.238-2.989    c0-1.18-0.412-2.179-1.238-2.998c-0.825-0.818-1.829-1.229-3.008-1.229c-2.505,0-4.635-0.881-6.391-2.645    c-1.757-1.763-2.635-3.896-2.635-6.4c0-2.517,0.878-4.653,2.635-6.409c1.756-1.757,3.893-2.636,6.41-2.636    c1.56,0,3.07,0.411,4.531,1.229c1.462,0.819,2.554,1.904,3.274,3.255c0.327,0.615,0.491,1.173,0.491,1.67    c0,0.853-0.334,1.584-1.002,2.192c-0.67,0.61-1.436,0.915-2.301,0.915c-0.813,0-1.655-0.494-2.527-1.484    c-0.872-0.989-1.693-1.484-2.467-1.484c-0.76,0-1.41,0.269-1.946,0.806c-0.539,0.538-0.807,1.186-0.807,1.946    s0.268,1.409,0.807,1.947c0.536,0.537,1.187,0.806,1.946,0.806c2.922,0,5.406,1.022,7.452,3.066    C341.044,227.852,342.066,230.336,342.066,233.258z"
   id="path8"
   style="fill:#ffffff" />
		<path
   fill="#231F20"
   d="M359.884,240.633c0,0.916-0.295,1.67-0.884,2.26c-0.59,0.59-1.344,0.886-2.262,0.886    s-1.671-0.296-2.261-0.886c-0.591-0.59-0.885-1.344-0.885-2.26v-26.544c0-0.918,0.294-1.672,0.885-2.262    c0.59-0.59,1.343-0.886,2.261-0.886s1.672,0.296,2.262,0.886c0.589,0.59,0.884,1.344,0.884,2.262V240.633z"
   id="path10"
   style="fill:#ffffff" />
		<path
   fill="#231F20"
   d="M400.432,217.943c0,0.851-0.323,1.603-0.973,2.25c-0.648,0.649-1.399,0.974-2.251,0.974    c-0.708,0-1.442-0.321-2.202-0.963c-0.171-0.171-0.499-0.459-0.984-0.864c-1.795-1.403-3.854-2.104-6.173-2.104    c-2.806,0-5.194,0.985-7.167,2.958c-1.974,1.973-2.959,4.362-2.959,7.167c0,2.806,0.985,5.194,2.959,7.168    c1.973,1.973,4.361,2.958,7.167,2.958c2.385,0,4.463-0.715,6.232-2.143v-7.983c0-0.918,0.294-1.671,0.886-2.261    c0.59-0.59,1.342-0.885,2.26-0.885s1.672,0.295,2.262,0.885s0.884,1.343,0.884,2.261v9.418c0,1.102-0.779,2.255-2.339,3.461    c-3.055,2.36-6.449,3.54-10.185,3.54c-4.549,0-8.423-1.601-11.62-4.799c-3.198-3.197-4.799-7.07-4.799-11.62    c0-4.549,1.601-8.421,4.799-11.619c3.197-3.198,7.071-4.799,11.62-4.799c3.763,0,7.157,1.18,10.185,3.54    C399.632,215.727,400.432,216.88,400.432,217.943z"
   id="path12"
   style="fill:#ffffff" />
		<path
   fill="#231F20"
   d="M439.858,240.634c0,0.904-0.311,1.661-0.934,2.27c-0.623,0.609-1.387,0.914-2.291,0.914    c-0.943,0-1.848-0.558-2.713-1.673l-14.707-18.926v17.408c0,0.919-0.296,1.675-0.886,2.265c-0.59,0.591-1.344,0.887-2.26,0.887    c-0.918,0-1.672-0.296-2.262-0.885c-0.59-0.59-0.886-1.343-0.886-2.26v-26.548c0-0.903,0.313-1.659,0.938-2.27    c0.624-0.609,1.39-0.914,2.298-0.914c0.946,0,1.854,0.546,2.722,1.637l14.688,18.921v-17.373c0-0.918,0.295-1.67,0.885-2.26    c0.591-0.59,1.344-0.886,2.262-0.886s1.671,0.296,2.261,0.886s0.885,1.342,0.885,2.259V240.634z"
   id="path14"
   style="fill:#ffffff" />
		<path
   fill="#231F20"
   d="M471.499,233.258c0,2.923-1.022,5.407-3.067,7.453c-2.045,2.045-4.528,3.067-7.452,3.067    c-1.848,0-3.61-0.473-5.289-1.416c-1.729-0.971-3.009-2.255-3.834-3.854c-0.314-0.615-0.472-1.166-0.472-1.651    c0-0.865,0.334-1.599,1.003-2.202c0.668-0.602,1.435-0.904,2.301-0.904c0.772,0,1.713,0.622,2.821,1.868    c1.106,1.245,2.264,1.867,3.47,1.867c1.166,0,2.163-0.412,2.988-1.238c0.826-0.825,1.239-1.822,1.239-2.989    c0-1.18-0.413-2.179-1.239-2.998c-0.825-0.818-1.827-1.229-3.007-1.229c-2.505,0-4.635-0.881-6.391-2.645    c-1.757-1.763-2.636-3.896-2.636-6.4c0-2.517,0.879-4.653,2.636-6.409c1.756-1.757,3.893-2.636,6.409-2.636    c1.56,0,3.07,0.411,4.533,1.229c1.46,0.819,2.552,1.904,3.272,3.255c0.328,0.615,0.492,1.173,0.492,1.67    c0,0.853-0.335,1.584-1.003,2.192c-0.669,0.61-1.436,0.915-2.301,0.915c-0.813,0-1.654-0.494-2.526-1.484    c-0.872-0.989-1.694-1.484-2.468-1.484c-0.761,0-1.408,0.269-1.946,0.806c-0.537,0.538-0.806,1.186-0.806,1.946    s0.269,1.409,0.806,1.947c0.538,0.537,1.186,0.806,1.946,0.806c2.924,0,5.407,1.022,7.452,3.066    C470.477,227.852,471.499,230.336,471.499,233.258z"
   id="path16"
   style="fill:#ffffff" />
	</g>
	<g
   id="g36"
   style="fill:#ffffff">
		<path
   fill="#231F20"
   d="M540.382,83.719c-0.573-1.303-1.512-2.202-2.809-2.69c-1.309-0.647-2.652-0.69-4.031-0.121    c-1.388,0.573-2.321,1.508-2.811,2.811c-0.33,0.813-0.654,1.588-0.979,2.317c-0.328,0.733-0.65,1.428-0.978,2.077    c-0.325,0.817-0.649,1.508-0.975,2.077c-0.328,0.573-0.653,1.182-0.978,1.832c-1.308,2.771-2.811,5.461-4.52,8.063    c-0.773,1.178-1.596,2.299-2.452,3.377c0.001-0.118,0.005-0.24,0.005-0.358c0.16-4.395-0.329-8.219-1.468-11.48    c-1.14-3.256-2.687-6.025-4.639-8.308c-2.286-2.766-5.009-4.763-8.185-5.986c-3.175-1.219-6.56-1.913-10.141-2.077h-0.243    c-6.841,0-13.111,2.487-18.809,7.455c-5.702,4.968-10.835,11.198-15.394,18.688c-2.282,3.749-4.724,8.549-7.326,14.41    c-2.609,5.867-5.011,12.093-7.209,18.689c-0.115,0.349-0.225,0.698-0.339,1.048c-0.021,0.038-0.046,0.069-0.066,0.107    c-2.44,5.373-4.807,10.26-7.084,14.655c-2.282,4.398-4.563,8.308-6.841,11.728c-2.282,3.261-4.482,6.107-6.595,8.548    c-2.118,2.446-4.318,4.483-6.597,6.111c-1.952,1.303-4.154,2.362-6.596,3.176c-2.771,0.813-5.133,1.219-7.085,1.219h-0.244    c-2.281,0-3.994-0.733-5.129-2.198c-1.631-1.627-2.446-4.313-2.446-8.061v-0.489c0-1.465,0.205-3.297,0.614-5.495    c0.405-2.201,1.015-4.603,1.832-7.209c0.811-2.767,1.669-5.741,2.563-8.917c0.894-3.177,1.913-6.472,3.055-9.892    c3.581-10.422,7.121-20.561,10.626-30.417c3.501-9.852,6.965-19.667,10.385-29.439l13.225-38.718    c0.326-0.813,0.57-1.549,0.735-2.198c0.16-0.649,0.404-1.383,0.733-2.2c0.81-2.278,1.748-4.925,2.807-7.939    c1.058-3.011,2.157-6.147,3.3-9.407c0.488-1.299,0.404-2.602-0.245-3.905c-0.653-1.303-1.631-2.202-2.932-2.691    c-1.307-0.324-2.605-0.199-3.908,0.369c-1.308,0.573-2.197,1.508-2.687,2.807c-1.307,3.749-2.441,7.086-3.421,10.017    c-0.976,2.934-1.876,5.46-2.683,7.574l-1.47,4.153l-13.227,38.719c-3.584,10.26-7.169,20.4-10.75,30.417    c-3.565,9.964-6.968,19.808-10.208,29.529c-0.018,0.034-0.034,0.065-0.052,0.101l-0.493,1.258    c-1.952,4.563-4.436,9.167-6.957,14.375c-2.53,5.213-5.253,10.016-8.187,14.414c-2.932,4.399-6.067,8.06-9.403,10.995    c-3.34,2.932-6.885,4.395-10.63,4.395c-2.606,0-4.479-0.813-5.617-2.442c-0.653-0.978-1.099-2.157-1.343-3.54    c-0.245-1.383-0.364-2.811-0.364-4.277v-0.49c0-1.624,0.199-3.5,0.608-5.618c0.405-2.113,1.015-4.56,1.833-7.33    c1.138-5.207,3.011-11.395,5.617-18.564c1.138-3.419,2.481-7.245,4.03-11.482c1.547-4.234,3.135-8.629,4.767-13.191    c2.442-6.676,4.764-12.908,6.96-18.689c2.198-5.778,3.945-10.461,5.253-14.045c0.489-1.303,0.446-2.606-0.119-3.909    c-0.574-1.303-1.512-2.202-2.811-2.688c-1.308-0.488-2.607-0.449-3.911,0.121c-1.307,0.574-2.196,1.508-2.686,2.811    c-0.653,1.628-1.308,3.339-1.957,5.128c-0.649,1.796-1.383,3.749-2.197,5.863c-0.978-1.789-2.037-3.421-3.176-4.884    c-2.28-2.442-4.847-4.398-7.694-5.863c-2.85-1.467-5.906-2.361-9.162-2.69h-2.196c-7.006,0.164-13.356,2.775-19.058,7.819    c-5.701,5.052-10.834,11.323-15.39,18.813c-2.93,5.048-5.621,10.425-8.063,16.123c-2.44,5.701-4.482,11.319-6.105,16.856    c-0.169,0.576-0.321,1.133-0.483,1.702l-0.002,0.006c-1.956,4.563-4.193,9.45-6.72,14.658c-2.525,5.213-5.252,10.016-8.184,14.414    c-2.931,4.399-6.066,8.06-9.402,10.995c-3.339,2.932-6.884,4.395-10.629,4.395h-0.245c-2.442,0-4.233-0.813-5.372-2.442    c-0.653-0.978-1.1-2.157-1.344-3.54s-0.369-2.811-0.369-4.277v-0.49c0-2.113,0.205-4.355,0.613-6.717    c0.405-2.356,1.016-4.843,1.833-7.449c0.81-2.77,1.708-5.576,2.686-8.428c0.979-2.852,1.953-5.658,2.932-8.428    c0.324-0.649,0.608-1.384,0.854-2.202c0.244-0.813,0.529-1.623,0.854-2.442c0.978-2.44,1.992-5.167,3.055-8.183    c1.059-3.011,2.032-6.106,2.931-9.282c0.894-3.175,1.668-6.392,2.321-9.651c0.649-3.255,0.979-6.351,0.979-9.282    c0-6.511-1.632-11.972-4.888-16.367c-3.259-4.398-9.282-6.601-18.079-6.601c-4.07,0-7.979,1.063-11.724,3.18    c-3.749,2.118-7.414,5.048-10.995,8.793c0.325-0.813,0.649-1.627,0.979-2.442c0.324-0.814,0.649-1.627,0.978-2.445    c0.485-1.3,0.405-2.604-0.244-3.906c-0.653-1.303-1.632-2.201-2.931-2.69c-1.307-0.49-2.61-0.406-3.909,0.244    c-1.307,0.653-2.202,1.632-2.69,2.931c-3.421,9.614-6.84,19.177-10.257,28.705l-21.254,59.365    c-3.091,8.877-5.132,14.699-6.107,17.465c-0.489,1.309-0.404,2.607,0.241,3.911c0.654,1.307,1.631,2.196,2.934,2.686    c1.303,0.325,2.607,0.209,3.906-0.364c1.307-0.569,2.201-1.588,2.69-3.055c0.975-2.768,3.051-8.63,6.227-17.587    c3.177-8.958,6.801-19.218,10.874-30.781c2.442-6.517,5.578-13.437,9.403-20.766c3.825-7.33,8.104-13.842,12.827-19.547    c3.255-3.905,6.476-7.121,9.651-9.647c3.175-2.522,6.308-3.789,9.403-3.789c4.723,0,8.023,1.223,9.896,3.665    c1.872,2.445,2.811,5.46,2.811,9.041c0,5.212-0.978,10.829-2.932,16.856c-1.957,6.027-3.829,11.319-5.621,15.879    c-0.328,0.817-0.609,1.588-0.854,2.321c-0.244,0.733-0.529,1.508-0.853,2.321c-1.143,3.095-2.202,6.106-3.177,9.038    c-0.978,2.93-1.875,5.861-2.69,8.793c-0.813,2.934-1.507,5.785-2.073,8.551c-0.574,2.771-0.858,5.458-0.858,8.064v0.731    c0,2.444,0.246,4.805,0.735,7.083c0.488,2.286,1.383,4.398,2.686,6.351c1.467,2.121,3.335,3.83,5.622,5.133    c2.278,1.303,5.043,1.952,8.303,1.952h0.245c5.538,0,10.505-1.668,14.904-5.008c4.394-3.335,8.383-7.53,11.968-12.582    c1.125-1.585,2.201-3.225,3.255-4.89c0.125,1.737,0.338,3.411,0.649,5.015c0.649,3.339,1.873,6.229,3.665,8.672    c3.256,5.374,8.308,8.144,15.147,8.305c6.188,0.164,11.85-1.669,16.978-5.494c5.132-3.825,9.811-8.752,14.049-14.783v0.246    c0,2.444,0.241,4.805,0.729,7.083c0.489,2.286,1.385,4.398,2.691,6.351c1.463,2.121,3.336,3.83,5.617,5.133    c2.277,1.303,5.044,1.952,8.304,1.952h0.244c5.537,0,10.505-1.668,14.903-5.008c4.398-3.335,8.429-7.53,12.094-12.582    c0.075-0.104,0.146-0.216,0.222-0.321c0.408,5.164,2.084,9.365,5.03,12.592c1.625,1.793,3.54,3.135,5.742,4.03    c2.196,0.897,4.52,1.342,6.961,1.342h0.244c3.581,0,7.001-0.567,10.26-1.707c3.257-0.979,6.353-2.446,9.282-4.398    c5.371-3.947,10.513-9.586,15.426-16.909c0.056,1.551,0.177,3.06,0.373,4.517c0.733,5.462,2.727,9.896,5.986,13.316    c3.255,3.421,8.219,5.128,14.899,5.128c5.861,0,11.729-2.157,17.59-6.471c5.861-4.314,11.075-9.566,15.633-15.757    c0,0,3.425-4.389,6.111-8.797c2.772-4.552,5.288-9.402,7.569-14.535c2.282-5.128,4.278-10.216,5.986-15.268    c1.287-3.79,2.365-7.469,3.234-11.033c2.273-1.372,4.376-3.011,6.299-4.934c2.602-2.606,4.844-5.413,6.716-8.428    c1.872-3.016,3.705-6.146,5.498-9.406c0.324-0.815,0.695-1.548,1.099-2.202c0.403-0.645,0.773-1.299,1.102-1.952    c0.326-0.813,0.646-1.628,0.977-2.442c0.322-0.813,0.648-1.628,0.977-2.446C540.907,86.325,540.947,85.022,540.382,83.719z     M347.468,139.628c-3.016,7.25-6.354,13.925-10.016,20.031c-3.665,6.107-7.659,11.16-11.974,15.148    c-4.317,3.99-8.916,5.901-13.8,5.737c-3.096-0.159-5.378-1.379-6.841-3.664c-1.797-2.931-2.691-7.486-2.691-13.677    c0-3.096,0.45-6.88,1.348-11.362c0.891-4.476,2.114-9.239,3.661-14.291c1.548-5.044,3.421-10.176,5.621-15.389    c2.198-5.212,4.68-10.176,7.449-14.902c3.746-6.187,7.776-11.32,12.093-15.389c4.314-4.07,8.834-6.191,13.562-6.355    c0.646,0,1.135,0.084,1.463,0.244c3.745,0.33,7.001,1.957,9.772,4.888c2.605,2.931,4.068,7.33,4.398,13.191    c0,0.654-0.084,1.223-0.246,1.712c-0.817,1.953-1.672,4.114-2.565,6.472c-0.895,2.361-1.917,4.847-3.052,7.449    C353.204,125.667,350.479,132.382,347.468,139.628z M501.287,86.862c1.792,0.729,3.34,1.829,4.643,3.296    c2.602,2.932,3.825,7.17,3.665,12.702c-0.084,2.911-0.426,6.056-1.018,9.429c-1.896,0.658-3.957,0.989-6.187,0.989    c-1.138,0-2.525-0.16-4.153-0.488c-3.094-0.815-5.397-2.475-7.325-4.644c-5.082-5.717-3.421-15.389-3.421-15.389    c0.161-0.814,0.325-1.711,0.485-2.686c0.161-0.979,0.405-1.957,0.733-2.932c0.024-0.111,0.041-0.221,0.06-0.331    c2.084-0.858,4.221-1.292,6.411-1.292C497.462,85.68,499.494,86.128,501.287,86.862z M497.381,144.881    c-3.788,7.782-8.552,14.903-8.552,14.903c-4.063,5.707-8.512,10.666-13.312,14.899c-4.808,4.239-9.491,6.352-14.05,6.352    c-4.074,0-6.924-1.463-8.549-4.395c-1.632-2.936-2.366-6.719-2.2-11.363c0.16-4.639,0.938-9.808,2.321-15.513    c1.383-5.697,3.091-11.314,5.132-16.856c2.032-5.533,4.109-10.626,6.227-15.269c2.117-4.64,3.99-8.264,5.621-10.87    c2.202-3.805,4.529-7.189,6.979-10.164c0.057,4.363,0.949,7.956,1.941,11.053c1.598,4.99,4.8,8.39,5.861,9.282    c3.1,2.602,6.677,4.56,10.75,5.863c2.117,0.488,4.398,0.734,6.84,0.734c1.234,0,2.426-0.065,3.582-0.185    C503.938,130.445,502.079,135.231,497.381,144.881z"
   id="path20"
   style="fill:#ffffff" />
		<g
   id="g34"
   style="fill:#ffffff">
			<path
   fill="#231F20"
   d="M210.952,40.93c-0.569,5.296-1.673,11.037-3.297,17.223c-1.625,6.192-3.624,12.704-5.984,19.542     c-2.367,6.844-4.686,13.522-6.963,20.034c-1.305,3.256-2.485,6.394-3.54,9.406l-1.153,3.297l-3.492,10.011     c-0.063,0.159-0.125,0.326-0.188,0.493c-0.688,1.833-1.486,3.866-2.381,6.109c-2.437,6.518-5.171,13.967-8.177,22.354     c-3.021,8.385-5.866,16.611-8.553,24.672c-2.687,8.06-4.971,15.474-6.838,22.235c-1.875,6.755-2.812,11.684-2.812,14.771v0.979     c0,2.937,0.244,5.74,0.736,8.435c0.486,2.68,1.374,5.005,2.687,6.956c1.298,1.791,2.929,3.215,4.88,4.276     c1.958,1.055,4.478,1.59,7.574,1.59h0.493c1.298,0,2.479,0.527,3.541,1.583c1.055,1.062,1.59,2.325,1.59,3.789     c0,1.299-0.535,2.479-1.59,3.542c-1.062,1.062-2.243,1.589-3.541,1.589h-0.493c-5.213-0.167-9.483-1.187-12.822-3.055     c-3.339-1.874-6.067-4.442-8.185-7.699c-1.958-2.928-3.339-6.226-4.151-9.892c-0.82-3.658-1.223-7.372-1.223-11.114v-0.979     c0-3.749,0.979-9.155,2.93-16.244c1.957-7.08,4.353-14.82,7.212-23.207c2.839-8.386,5.817-16.855,8.907-25.407l9.289-25.283     l3.666-10.504c0.972-2.769,1.951-5.498,2.929-8.185c0.979-2.686,1.951-5.415,2.93-8.184c2.117-6.186,4.276-12.461,6.477-18.813     c2.2-6.345,4.109-12.377,5.741-18.077c1.625-5.7,2.763-10.872,3.416-15.509c0.652-4.645,0.569-8.344-0.244-11.121     c-0.812-2.763-2.034-4.964-3.665-6.595c-1.305-1.139-3.096-1.708-5.374-1.708c-2.277-0.16-5.047,0.653-8.303,2.444     c-3.263,1.95-6.109,4.561-8.553,7.816c-4.234,5.374-8.837,12.544-13.801,21.5c-4.971,8.956-10.302,18.653-16.001,29.074     c-2.444,4.395-4.93,8.914-7.456,13.557c-2.52,4.638-5.089,9.24-7.692,13.801l-5.866,10.504     c-5.046,8.636-10.253,16.98-15.626,25.04c-5.38,8.06-10.794,15.266-16.251,21.624c-5.456,6.352-10.996,11.601-16.612,15.752     c-5.616,4.151-11.281,6.804-16.98,7.941c-1.465,0.326-2.971,0.569-4.519,0.729c-1.548,0.167-2.971,0.249-4.27,0.249     c-4.401,0-8.643-0.61-12.704-1.833c-4.075-1.222-7.741-2.971-10.996-5.254l-0.292-0.216c-3.562-2.332-6.582-5.734-8.983-10.107     c-1.382-2.52-0.458-5.685,2.062-7.066c2.527-1.382,5.686-0.459,7.074,2.062c1.541,2.817,3.402,4.977,5.498,6.393l0.66,0.472     c4.561,3.423,10.51,5.04,17.681,5.04c0,0,3.173,0.264,6.837-0.485c4.562-0.932,9.164-3.215,13.802-6.721     c4.644-3.499,9.281-7.935,13.925-13.314c4.645-5.374,9.282-11.517,13.925-18.445c4.645-6.921,9.24-14.204,13.801-21.86     l0.125-0.215l5.984-10.289c3.089-5.373,6.109-10.788,9.039-16.244c2.93-5.457,5.859-10.788,8.795-16.001     c5.699-10.753,11.115-20.68,16.245-29.803c5.13-9.122,9.893-16.529,14.287-22.235c1.798-2.11,3.63-4.034,5.498-5.741     c1.875-1.708,3.951-3.214,6.234-4.519c4.561-2.771,9.039-4.152,13.433-4.152c4.561,0,8.553,1.465,11.968,4.395     c3.096,2.93,5.456,6.762,7.088,11.482C211.32,31.204,211.521,35.64,210.952,40.93z"
   id="path22"
   style="fill:#ffffff" />
			<g
   id="g32"
   style="fill:#ffffff">
				<path
   fill="#FF8C95"
   d="M21.488,152.67c0-0.932,0.033-1.879,0.095-2.813c0.193-2.869-1.977-5.35-4.846-5.544      c-2.85-0.192-5.35,1.977-5.544,4.846c-0.078,1.166-0.118,2.348-0.118,3.512c0,2.97,0.253,5.93,0.751,8.799      c0.441,2.531,2.64,4.315,5.124,4.315c0.295,0,0.597-0.025,0.897-0.077c2.834-0.494,4.731-3.189,4.239-6.021      C21.69,157.404,21.488,155.043,21.488,152.67z"
   id="path24"
   style="fill:#ffffff" />
				<path
   fill="#FF8C95"
   d="M27.109,123.298c-2.328-1.688-5.583-1.17-7.271,1.158c-2.42,3.336-4.381,7.069-5.829,11.092      c-0.975,2.705,0.43,5.688,3.135,6.662c0.583,0.21,1.178,0.309,1.764,0.309c2.133,0,4.134-1.32,4.898-3.443      c1.116-3.102,2.617-5.962,4.461-8.507C29.955,128.242,29.437,124.986,27.109,123.298z"
   id="path26"
   style="fill:#ffffff" />
				<path
   fill="#FF8C95"
   d="M41.191,108.99c-4.068,1.376-7.833,3.245-11.193,5.555c-2.37,1.63-2.969,4.872-1.339,7.24      c1.009,1.468,2.637,2.258,4.294,2.258c1.017,0,2.044-0.298,2.946-0.918c2.568-1.766,5.471-3.203,8.628-4.271      c2.724-0.921,4.185-3.876,3.264-6.601C46.87,109.53,43.917,108.069,41.191,108.99z"
   id="path28"
   style="fill:#ffffff" />
				<path
   fill="#FF8C95"
   d="M117.755,110.433c-9.191-0.201-16.348-0.943-23.311-4.074c12.384-8.352,27.372-22.479,30.239-43.068      c2.09-11.802-2.749-22.687-12.038-27.082c-8.539-4.033-18.146-1.284-25.817,7.366c-6.262-8.296-15.308-11.336-23.749-7.956      c-8.102,3.256-15.912,13.294-13.926,27.65c2.048,15.362,10.372,30.156,22.874,40.735c-3.784,1.486-9.622,2.173-16.612,2.173      c-3.284,0-5.005,2.687-5.005,5.346c0,2.506,1.562,5.207,5.005,5.207c10.448,0,18.209-1.625,27.178-4.832      c8.872,5.249,18.008,7.998,29.178,8.823c1.305,0.097,2.631,0.173,3.992,0.215h70.573c0.063-0.167,0.125-0.333,0.188-0.493      l3.492-10.011H117.755z M59.456,61.916c-1.291-9.982,3.485-15.724,8.476-16.841c0.583-0.132,1.201-0.201,1.84-0.201      c4.054,0,8.976,2.846,11.649,11.156c1.145,3.562,2.075,5.241,5.623,5.241h0.007c3.395,0,4.554-3.006,5.13-5.269      c2.18-8.56,8.788-11.885,14.189-10.753c4.791,1.006,9.768,5.907,8.018,16.404c-2.7,15.508-13.891,29.552-30.725,38.57      C70.375,90.822,61.552,76.875,59.456,61.916z"
   id="path30"
   style="fill:#ffffff" />
			</g>
		</g>
	</g>
</g>


</svg>