<?xml version="1.0" encoding="UTF-8" standalone="no"?>
<!-- Generator: Adobe Illustrator 22.1.0, SVG Export Plug-In  -->

<svg
   xmlns:dc="http://purl.org/dc/elements/1.1/"
   xmlns:cc="http://creativecommons.org/ns#"
   xmlns:rdf="http://www.w3.org/1999/02/22-rdf-syntax-ns#"
   xmlns:svg="http://www.w3.org/2000/svg"
   xmlns="http://www.w3.org/2000/svg"
   xmlns:sodipodi="http://sodipodi.sourceforge.net/DTD/sodipodi-0.dtd"
   xmlns:inkscape="http://www.inkscape.org/namespaces/inkscape"
   version="1.1"
   x="0px"
   y="0px"
   width="308.3px"
   height="31.9px"
   viewBox="0 0 308.3 31.9"
   style="overflow:scroll;enable-background:new 0 0 308.3 31.9;"
   xml:space="preserve"
   id="svg18"
   sodipodi:docname="separator-white.svg"
   inkscape:version="0.92.4 (unknown)"><metadata
   id="metadata22"><rdf:RDF><cc:Work
       rdf:about=""><dc:format>image/svg+xml</dc:format><dc:type
         rdf:resource="http://purl.org/dc/dcmitype/StillImage" /></cc:Work></rdf:RDF></metadata><sodipodi:namedview
   pagecolor="#ffffff"
   bordercolor="#666666"
   borderopacity="1"
   objecttolerance="10"
   gridtolerance="10"
   guidetolerance="10"
   inkscape:pageopacity="0"
   inkscape:pageshadow="2"
   inkscape:window-width="746"
   inkscape:window-height="480"
   id="namedview20"
   showgrid="false"
   inkscape:zoom="1.0444373"
   inkscape:cx="123.60383"
   inkscape:cy="54.248135"
   inkscape:window-x="0"
   inkscape:window-y="27"
   inkscape:window-maximized="0"
   inkscape:current-layer="svg18" />
<style
   type="text/css"
   id="style2">
	.st0{fill:#FF8C95;}
</style>
<defs
   id="defs4">
</defs>
<g
   id="g8"
   style="fill:#ffffff">
	<path
   class="st0"
   d="M154.1,31.9c-0.6,0-1.2-0.2-1.7-0.5c-11.7-8.6-17.3-18.2-14.6-25c1.3-3.3,5-6.5,9.5-6.3c2.6,0.1,5,1.3,6.8,3.2   c1.8-1.9,4.1-3.1,6.8-3.2c4.5-0.2,8.2,3,9.5,6.3c2.7,6.8-2.8,16.4-14.6,25C155.3,31.7,154.7,31.9,154.1,31.9z M147,5.7   c-1.9,0-3.4,1.6-3.9,2.8c-1.3,3.3,2.1,10.1,11,17.1c8.9-7,12.3-13.8,11-17.1c-0.5-1.2-2-2.8-4-2.8c-2,0.1-3.6,1.6-4.3,4.1   c-0.3,1.2-1.5,2.1-2.7,2.1c0,0,0,0,0,0c-1.3,0-2.4-0.9-2.7-2.1c-0.7-2.5-2.3-4-4.3-4.1C147.1,5.7,147.1,5.7,147,5.7z"
   id="path6"
   style="fill:#ffffff" />
</g>
<g
   id="g16"
   style="fill:#ffffff">
	<g
   id="path833-6-3-6-7-6_1_"
   style="fill:#ffffff">
		<path
   class="st0"
   d="M125.9,18.8C125.9,18.8,125.9,18.8,125.9,18.8l-123-0.1c-1.6,0-2.8-1.3-2.8-2.8c0-1.6,1.3-2.8,2.8-2.8    c0,0,0,0,0,0l123,0.1c1.6,0,2.8,1.3,2.8,2.8C128.7,17.6,127.4,18.8,125.9,18.8z"
   id="path10"
   style="fill:#ffffff" />
	</g>
	<g
   id="path833-6-3-6-7-6-5_1_"
   style="fill:#ffffff">
		<path
   class="st0"
   d="M305.5,18.8C305.5,18.8,305.5,18.8,305.5,18.8l-123-0.1c-1.6,0-2.8-1.3-2.8-2.8c0-1.6,1.3-2.8,2.8-2.8    c0,0,0,0,0,0l123,0.1c1.6,0,2.8,1.3,2.8,2.8C308.3,17.6,307,18.8,305.5,18.8z"
   id="path13"
   style="fill:#ffffff" />
	</g>
</g>
</svg>