<svg height="472pt" viewBox="-12 0 472 472" width="472pt" xmlns="http://www.w3.org/2000/svg"><g fill="#c68382"><path d="m224 472c-4.417969 0-8-3.582031-8-8v-304c0-4.417969 3.582031-8 8-8s8 3.582031 8 8v304c0 4.417969-3.582031 8-8 8zm0 0"/><path d="m352 472c-4.417969 0-8-3.582031-8-8v-128c0-4.417969 3.582031-8 8-8s8 3.582031 8 8v128c0 4.417969-3.582031 8-8 8zm0 0"/><path d="m96 472c-4.417969 0-8-3.582031-8-8v-128c0-4.417969 3.582031-8 8-8s8 3.582031 8 8v128c0 4.417969-3.582031 8-8 8zm0 0"/></g><path d="m224 48c0-26.507812-21.492188-48-48-48s-48 21.492188-48 48c0 26.511719 69.488281 112 96 112s96-85.488281 96-112c0-26.507812-21.492188-48-48-48s-48 21.492188-48 48" fill="#eb3936"/><path d="m352 224c0-26.507812-21.492188-48-48-48s-48 21.492188-48 48c0 26.511719 69.488281 112 96 112s96-85.488281 96-112c0-26.507812-21.492188-48-48-48s-48 21.492188-48 48" fill="#fc95a9"/><path d="m96 224c0-26.507812-21.492188-48-48-48s-48 21.492188-48 48c0 26.511719 69.488281 112 96 112s96-85.488281 96-112c0-26.507812-21.492188-48-48-48s-48 21.492188-48 48" fill="#bc171f"/></svg>