<svg height="464pt" viewBox="-24 0 464 464" width="464pt" xmlns="http://www.w3.org/2000/svg"><path d="m352 464h-352v-464h352c17.671875 0 32 14.328125 32 32v400c0 17.671875-14.328125 32-32 32zm0 0" fill="#fc95a9"/><path d="m288 208h128v48h-128zm0 0" fill="#b09dda"/><path d="m0 0h48v464h-48zm0 0" fill="#b09dda"/><path d="m336 216c.046875-13.339844-8.214844-25.296875-20.703125-29.972656-12.492187-4.675782-26.574219-1.078125-35.296875 9.011718-8.722656-10.089843-22.804688-13.6875-35.296875-9.011718-12.488281 4.675781-20.75 16.632812-20.703125 29.972656 0 14.9375 38.328125 64 56 64s56-49.0625 56-64zm0 0" fill="#eb3936"/><path d="m384 48h32v32h-32zm0 0" fill="#eca518"/><path d="m384 80h32v32h-32zm0 0" fill="#f6d7c9"/><path d="m384 112h32v32h-32zm0 0" fill="#e5b9af"/></svg>