<svg height="464pt" viewBox="-8 0 464 464" width="464pt" xmlns="http://www.w3.org/2000/svg"><path d="m0 208v256h416v-256l-208-128zm0 0" fill="#e5b9af"/><g fill="#eb3936"><path d="m112 240c13.253906 0 24 10.746094 24 24 0-13.253906 10.746094-24 24-24s24 10.746094 24 24c0 13.257812-34.742188 56-48 56s-48-42.742188-48-56c0-13.253906 10.746094-24 24-24zm0 0"/><path d="m72 112c13.253906 0 24 10.746094 24 24 0-13.253906 10.746094-24 24-24s24 10.746094 24 24c0 13.257812-34.742188 56-48 56s-48-42.742188-48-56c0-13.253906 10.746094-24 24-24zm0 0"/><path d="m240 176c13.253906 0 24 10.746094 24 24 0-13.253906 10.746094-24 24-24s24 10.746094 24 24c0 13.257812-34.742188 56-48 56s-48-42.742188-48-56c0-13.253906 10.746094-24 24-24zm0 0"/><path d="m376 0c13.253906 0 24 10.746094 24 24 0-13.253906 10.746094-24 24-24s24 10.746094 24 24c0 13.257812-34.742188 56-48 56s-48-42.742188-48-56c0-13.253906 10.746094-24 24-24zm0 0"/></g><path d="m416 208-208 128-208-128v256h416zm0 0" fill="#bc171f"/><path d="m216 40c13.253906 0 24 10.746094 24 24 0-13.253906 10.746094-24 24-24s24 10.746094 24 24c0 13.257812-34.742188 56-48 56s-48-42.742188-48-56c0-13.253906 10.746094-24 24-24zm0 0" fill="#eb3936"/></svg>